<svg width="1080" height="644" viewBox="0 0 1080 644" fill="none" xmlns="http://www.w3.org/2000/svg">
    <rect width="1080" height="644" fill="white" />
    <g clip-path="url(#clip0_981_2)">
        <path
            d="M747.172 252.944C743.589 214.225 679.124 214.923 679.124 214.923C679.124 214.923 625.456 272.264 612.852 271.661C600.248 271.058 649.159 213.678 649.159 213.678C625.661 207.216 559.655 225.896 559.655 225.896C559.655 225.896 550.364 302.063 538.296 298.378C526.228 294.694 549.966 231.352 549.966 231.352C525.631 234.266 499.348 257.479 499.348 257.479C464.717 296.697 516.905 339.112 516.905 339.112C516.905 339.112 513.116 365.439 491.691 392.666C491.691 392.666 487.075 397.578 481.718 406.363L488.021 407.46C488.809 405.894 489.665 404.363 490.585 402.87C490.59 402.858 490.592 402.852 490.604 402.842C490.62 402.82 490.628 402.801 490.644 402.779C491.243 401.882 492.111 400.601 493.178 399.051L493.181 399.045L493.183 399.04C495.764 395.602 497.555 393.048 498.723 391.184L498.73 391.165C506.564 380.337 517.561 366.371 523.67 364.105C523.67 364.105 523.142 363.003 522.821 360.981C523.094 361.977 523.37 363.018 523.67 364.105C530.438 389.092 583.737 402.326 614.878 401.389C646.019 400.452 634.39 389.699 620.592 373.132C606.794 356.564 572.242 354.292 563.161 347.157C554.081 340.021 569.664 337.177 589.446 342.201C609.219 347.227 615.761 368.999 647.602 377.71C679.444 386.422 714.715 329.847 714.715 329.847C691.149 332.896 653.202 313.594 653.001 305.625C652.801 297.651 712.034 308.743 721.683 308.04C731.348 307.337 750.755 291.665 747.172 252.944V252.944Z"
            fill="url(#paint0_linear_981_2)" />
        <path
            d="M334.791 188.114C351.383 156.671 405.532 179.836 405.532 179.836C405.532 179.836 430.722 247.054 441.567 250.959C452.412 254.864 431.251 189.279 431.251 189.279C453.343 192.05 502.49 230.941 502.49 230.941C502.49 230.941 483.638 298.516 495.112 299.631C506.585 300.746 508.754 238.942 508.754 238.942C528.265 249.924 542.307 278.732 542.307 278.732C557.784 323.979 498.887 341.521 498.887 341.521C498.887 341.521 492.858 365.081 501.394 395.576C501.394 395.576 503.568 401.342 505.009 410.636L499.306 409.355C499.19 407.756 499.005 406.164 498.752 404.582C498.752 404.569 498.752 404.562 498.746 404.551C498.739 404.526 498.739 404.507 498.733 404.483C498.542 403.516 498.259 402.13 497.901 400.449V400.436C496.929 396.63 496.313 393.845 495.98 391.862V391.843C493.166 379.956 488.78 364.311 484.42 360.258C484.42 360.258 485.251 359.513 486.231 357.918C485.652 358.662 485.054 359.445 484.42 360.258C469.953 378.989 420.344 371.499 394.396 359.802C368.449 348.106 382.029 343.098 399.477 333.939C416.925 324.78 446.876 334.962 457.038 332.116C467.2 329.27 455.049 321.41 436.596 318.725C418.151 316.046 405.002 332.14 375.083 328.346C345.162 324.552 335.229 264.424 335.229 264.424C354.044 275.252 392.826 272.24 395.789 265.581C398.751 258.917 344.886 247.541 336.99 243.568C329.082 239.589 318.199 219.559 334.791 188.114V188.114Z"
            fill="url(#paint1_linear_981_2)" />
        <path d="M435.503 251.561L424.595 202.615H393.051" stroke="#8C34B1" stroke-width="30.865"
            stroke-linecap="round" stroke-linejoin="round" />
        <path fill-rule="evenodd" clip-rule="evenodd"
            d="M464.57 386.254L435.502 251.561H644.32C654.829 251.561 662.648 261.191 660.454 271.412L635.676 386.254C634.043 393.817 627.329 399.215 619.542 399.215H480.688C472.917 399.215 466.203 393.817 464.57 386.254Z"
            fill="#8C34B1" stroke="#8C34B1" stroke-width="30.865" stroke-linecap="round"
            stroke-linejoin="round" />
        <path
            d="M612.616 441.839C608.222 441.839 604.656 445.403 604.699 449.793C604.699 454.183 608.265 457.746 612.658 457.746C617.052 457.746 620.618 454.183 620.618 449.793C620.597 445.403 617.031 441.839 612.616 441.839ZM485.271 441.839C480.877 441.839 477.311 445.403 477.353 449.793C477.332 454.183 480.898 457.746 485.292 457.746C489.686 457.746 493.252 454.183 493.252 449.793C493.252 445.403 489.686 441.839 485.271 441.839Z"
            stroke="#8C34B1" stroke-width="39.978" stroke-linecap="round" stroke-linejoin="round" />
        <path fill-rule="evenodd" clip-rule="evenodd"
            d="M712.257 365.768C696.478 365.768 683.684 352.985 683.684 337.217C683.684 321.449 696.478 308.665 712.257 308.665C728.037 308.665 740.831 321.449 740.831 337.217C740.831 352.985 728.037 365.768 712.257 365.768Z"
            fill="#8C34B1" />
        <path d="M721.238 333.138L709.505 344.558L702.46 337.707" stroke="white"
            stroke-width="6.539" stroke-linecap="round" stroke-linejoin="round" />
        <path fill-rule="evenodd" clip-rule="evenodd"
            d="M731.442 272.771C715.437 272.771 702.46 259.622 702.46 243.403C702.46 227.185 715.437 214.036 731.442 214.036C747.448 214.036 760.424 227.185 760.424 243.403C760.424 259.622 747.448 272.771 731.442 272.771Z"
            fill="#8C34B1" />
        <path d="M741.647 238.508L729.404 251.561L722.054 243.73" stroke="white"
            stroke-width="6.539" stroke-linecap="round" stroke-linejoin="round" />
        <path fill-rule="evenodd" clip-rule="evenodd"
            d="M355.446 299.533C339.57 299.533 326.697 286.67 326.697 270.806C326.697 254.941 339.57 242.078 355.446 242.078C371.323 242.078 384.195 254.941 384.195 270.806C384.195 286.67 371.323 299.533 355.446 299.533Z"
            fill="#8C34B1" />
        <path d="M365.03 266.453L353.053 278.64L345.863 271.329" stroke="white" stroke-width="6.539"
            stroke-linecap="round" stroke-linejoin="round" />
        <path
            d="M603.678 290.718H492.649C488.14 290.718 484.485 294.37 484.485 298.875V302.138C484.485 306.643 488.14 310.296 492.649 310.296H603.678C608.187 310.296 611.842 306.643 611.842 302.138V298.875C611.842 294.37 608.187 290.718 603.678 290.718Z"
            fill="white" />
        <path
            d="M603.678 337.217H492.649C488.14 337.217 484.485 340.869 484.485 345.374V348.637C484.485 353.142 488.14 356.795 492.649 356.795H603.678C608.187 356.795 611.842 353.142 611.842 348.637V345.374C611.842 340.869 608.187 337.217 603.678 337.217Z"
            fill="white" />
        <path
            d="M573.007 198.995C587.45 181.138 580.575 151.639 580.575 151.639C580.575 151.639 550.287 151.112 535.856 168.983C521.413 186.841 528.276 216.327 528.276 216.327C528.276 216.327 558.565 216.853 573.007 198.995V198.995Z"
            fill="url(#paint2_linear_981_2)" />
        <path
            d="M751.916 288.271H751.791C751.053 298.342 743.28 298.497 743.28 298.497C743.28 298.497 751.852 298.658 751.852 310.296C751.852 298.658 760.424 298.497 760.424 298.497C760.424 298.497 752.653 298.342 751.916 288.271ZM504.551 191.194H504.426C503.688 201.266 495.915 201.421 495.915 201.421C495.915 201.421 504.487 201.582 504.487 213.22C504.487 201.582 513.059 201.421 513.059 201.421C513.059 201.421 505.289 201.266 504.551 191.194V191.194ZM325.763 213.22H325.638C324.9 223.292 317.126 223.447 317.126 223.447C317.126 223.447 325.699 223.608 325.699 235.246C325.699 223.608 334.271 223.447 334.271 223.447C334.271 223.447 326.5 223.292 325.763 213.22V213.22ZM679.018 385.871C674.11 387.313 667.568 390.217 664.044 395.508C660.522 400.8 665.176 402.071 671.171 400.782C677.166 399.494 682.99 395.779 685.175 390.858C687.36 385.936 683.047 384.687 679.018 385.871Z"
            fill="#E1E4E5" />
        <path fill-rule="evenodd" clip-rule="evenodd"
            d="M398.407 391.321H400.516C401.027 391.321 401.437 391.737 401.437 392.242V394.349C401.437 394.859 401.022 395.27 400.516 395.27H398.407C398.163 395.269 397.93 395.171 397.757 394.999C397.585 394.827 397.487 394.593 397.486 394.349V392.242C397.486 392.121 397.51 392.001 397.556 391.889C397.602 391.777 397.67 391.676 397.756 391.59C397.841 391.505 397.943 391.437 398.055 391.391C398.166 391.345 398.286 391.321 398.407 391.321ZM405.72 391.321H407.83C408.335 391.321 408.75 391.737 408.75 392.242V394.349C408.75 394.859 408.335 395.27 407.83 395.27H405.72C405.476 395.269 405.243 395.171 405.07 394.999C404.898 394.827 404.8 394.593 404.799 394.349V392.242C404.799 391.737 405.215 391.321 405.72 391.321ZM413.038 391.321H415.148C415.653 391.321 416.068 391.737 416.068 392.242V394.349C416.068 394.859 415.653 395.27 415.148 395.27H413.038C412.794 395.269 412.561 395.171 412.388 394.999C412.216 394.827 412.118 394.593 412.117 394.349V392.242C412.117 392.121 412.141 392.001 412.187 391.889C412.233 391.777 412.301 391.676 412.387 391.59C412.472 391.505 412.574 391.437 412.686 391.391C412.797 391.345 412.917 391.321 413.038 391.321ZM420.352 391.321H422.461C422.967 391.321 423.382 391.737 423.382 392.242V394.349C423.382 394.859 422.967 395.27 422.461 395.27H420.352C420.107 395.27 419.873 395.173 419.7 395C419.526 394.828 419.428 394.594 419.427 394.349V392.242C419.43 391.998 419.528 391.764 419.701 391.592C419.874 391.42 420.108 391.323 420.352 391.321V391.321ZM427.665 391.321H429.775C430.285 391.321 430.7 391.737 430.7 392.242V394.349C430.7 394.859 430.285 395.27 429.775 395.27H427.665C427.421 395.269 427.188 395.171 427.015 394.999C426.843 394.827 426.745 394.593 426.745 394.349V392.242C426.745 391.737 427.159 391.321 427.665 391.321ZM405.989 399.29H408.098C408.604 399.29 409.018 399.705 409.018 400.21V402.323C409.018 402.828 408.604 403.242 408.098 403.242H405.989C405.744 403.242 405.51 403.145 405.338 402.973C405.165 402.801 405.068 402.567 405.068 402.323V400.215C405.067 400.094 405.09 399.973 405.136 399.861C405.182 399.749 405.25 399.647 405.335 399.561C405.421 399.475 405.523 399.407 405.635 399.36C405.747 399.314 405.867 399.29 405.989 399.29V399.29ZM413.302 399.29H415.411C415.917 399.29 416.332 399.705 416.332 400.21V402.323C416.332 402.828 415.917 403.242 415.411 403.242H413.302C413.058 403.241 412.825 403.144 412.652 402.972C412.48 402.8 412.382 402.566 412.381 402.323V400.215C412.381 400.094 412.404 399.973 412.45 399.861C412.496 399.749 412.563 399.647 412.649 399.561C412.735 399.475 412.836 399.407 412.949 399.36C413.061 399.314 413.181 399.29 413.302 399.29V399.29ZM420.616 399.29H422.725C423.235 399.29 423.65 399.705 423.65 400.21V402.323C423.65 402.828 423.235 403.242 422.725 403.242H420.616C420.372 403.241 420.138 403.144 419.966 402.972C419.793 402.8 419.696 402.566 419.695 402.323V400.215C419.695 399.705 420.11 399.29 420.616 399.29V399.29ZM413.038 382.761H415.148C415.653 382.761 416.068 383.175 416.068 383.681V385.789C416.068 386.298 415.653 386.708 415.148 386.708H413.038C412.794 386.708 412.561 386.611 412.388 386.438C412.216 386.266 412.118 386.033 412.117 385.789V383.681C412.117 383.56 412.141 383.44 412.187 383.328C412.233 383.217 412.301 383.115 412.386 383.03C412.472 382.944 412.574 382.876 412.685 382.83C412.797 382.784 412.917 382.76 413.038 382.761V382.761ZM420.352 382.761H422.461C422.967 382.761 423.382 383.175 423.382 383.681V385.789C423.382 386.298 422.967 386.708 422.461 386.708H420.352C420.107 386.708 419.873 386.612 419.7 386.439C419.526 386.267 419.428 386.033 419.427 385.789V383.681C419.43 383.437 419.528 383.204 419.701 383.032C419.874 382.86 420.108 382.762 420.352 382.761V382.761Z"
            fill="#E1E4E5" />
    </g>
    <path
        d="M507.12 552.408H490.32V542.52C490.32 541.112 489.52 540.408 487.92 540.408H484.56C482.96 540.408 482.16 541.112 482.16 542.52V577.848C482.16 579.256 482.96 579.96 484.56 579.96H487.92C489.52 579.96 490.32 579.256 490.32 577.848V568.344H507.12V579.096C507.12 587.032 502.416 591 493.008 591H479.472C470.064 591 465.36 587.032 465.36 579.096V541.272C465.36 533.336 470.064 529.368 479.472 529.368H493.008C502.416 529.368 507.12 533.336 507.12 541.272V552.408ZM535.643 543.096H551.675V591H535.355V585.816C534.139 589.272 531.323 591 526.907 591H525.179C516.667 591 512.411 587.032 512.411 579.096V555C512.411 547.064 516.667 543.096 525.179 543.096H526.907C531.835 543.096 534.747 545.144 535.643 549.24V543.096ZM531.131 579H532.763C534.491 579 535.355 578.04 535.355 576.12V557.976C535.355 556.056 534.491 555.096 532.763 555.096H531.131C529.531 555.096 528.731 555.8 528.731 557.208V576.888C528.731 578.296 529.531 579 531.131 579ZM585.709 542.616H587.149V556.824H581.677C577.645 556.824 575.629 559 575.629 563.352V591H559.309V543.096H575.341V550.488C575.853 548.056 577.005 546.136 578.797 544.728C580.589 543.32 582.893 542.616 585.709 542.616ZM615.753 555.096H609.705V576.888C609.705 578.296 610.505 579 612.105 579H615.657V591H607.497C598.089 591 593.385 587.032 593.385 579.096V555.096H588.105V543.096H593.385V533.688H609.705V543.096H615.753V555.096Z"
        fill="#232323" />
    <path fill-rule="evenodd" clip-rule="evenodd"
        d="M228.647 50.0146C228.679 50.1326 228.696 50.2542 228.696 50.3764V69.3664C228.696 69.6101 228.631 69.8495 228.508 70.0604C228.385 70.2713 228.207 70.4463 227.994 70.5675L211.915 79.7441V97.9327C211.915 98.4277 211.65 98.8846 211.217 99.1339L177.653 118.287C177.576 118.33 177.493 118.358 177.409 118.387C177.377 118.397 177.348 118.416 177.315 118.425C177.08 118.486 176.833 118.486 176.599 118.425C176.56 118.415 176.525 118.394 176.489 118.38C176.412 118.352 176.332 118.328 176.258 118.287L142.702 99.1339C142.489 99.0125 142.312 98.8375 142.188 98.6266C142.065 98.4158 142 98.1764 142 97.9327V40.9627C142 40.8381 142.017 40.7169 142.049 40.5993C142.059 40.5594 142.084 40.5231 142.098 40.4833C142.124 40.4106 142.148 40.3362 142.187 40.2687C142.213 40.2237 142.251 40.1873 142.283 40.1458C142.323 40.0904 142.36 40.0333 142.407 39.9848C142.447 39.945 142.499 39.9156 142.545 39.881C142.595 39.8394 142.641 39.7944 142.698 39.7616H142.7L159.479 30.1852C159.692 30.064 159.932 30.0002 160.178 30.0002C160.423 30.0002 160.664 30.064 160.876 30.1852L177.655 39.7616H177.659C177.714 39.7962 177.762 39.8394 177.812 39.8793C177.858 39.9139 177.908 39.945 177.948 39.9831C177.997 40.0333 178.032 40.0904 178.074 40.1458C178.104 40.1873 178.144 40.2237 178.168 40.2687C178.209 40.3379 178.231 40.4106 178.259 40.4833C178.273 40.5231 178.298 40.5594 178.308 40.601C178.34 40.7189 178.357 40.8405 178.357 40.9627V76.5456L192.339 68.565V50.3746C192.339 50.2535 192.356 50.1306 192.388 50.0146C192.4 49.9731 192.423 49.9368 192.437 49.8969C192.465 49.8243 192.489 49.7498 192.527 49.6823C192.554 49.6373 192.592 49.601 192.622 49.5594C192.664 49.5041 192.699 49.4469 192.747 49.3985C192.788 49.3587 192.838 49.3293 192.884 49.2946C192.936 49.2531 192.981 49.2081 193.037 49.1752H193.039L209.82 39.5989C210.032 39.4775 210.273 39.4136 210.518 39.4136C210.763 39.4136 211.004 39.4775 211.217 39.5989L227.996 49.1752C228.055 49.2098 228.1 49.2531 228.153 49.2929C228.197 49.3275 228.247 49.3587 228.287 49.3968C228.336 49.4469 228.371 49.5041 228.413 49.5594C228.444 49.601 228.483 49.6373 228.507 49.6823C228.547 49.7498 228.57 49.8243 228.598 49.8969C228.614 49.9368 228.637 49.9731 228.647 50.0146V50.0146ZM225.899 68.565V52.7735L220.027 56.1243L211.915 60.7541V76.5456L225.901 68.565H225.899ZM209.12 97.1314V81.3294L201.141 85.8467L178.355 98.7375V114.688L209.12 97.1314ZM144.797 43.3598V97.1314L175.558 114.687V98.7393L159.488 89.7237L159.483 89.7202L159.476 89.7167C159.422 89.6856 159.376 89.6406 159.326 89.6025C159.282 89.5679 159.231 89.5402 159.193 89.5021L159.189 89.4969C159.144 89.4537 159.113 89.4 159.074 89.3516C159.039 89.3048 158.997 89.265 158.969 89.2166L158.968 89.2114C158.936 89.1594 158.917 89.0971 158.894 89.0383C158.872 88.9864 158.842 88.9379 158.828 88.8825V88.8808C158.81 88.815 158.807 88.7458 158.8 88.6783C158.793 88.6264 158.779 88.5744 158.779 88.5225V88.5191V51.3404L150.669 46.7089L144.797 43.3616V43.3598ZM160.179 32.9856L146.199 40.9627L160.176 48.9398L174.154 40.961L160.176 32.9856H160.179ZM167.45 82.7694L175.56 78.1414V43.3598L169.688 46.7106L161.576 51.3404V86.1219L167.45 82.7694ZM210.518 42.3993L196.54 50.3764L210.518 58.3535L224.495 50.3746L210.518 42.3993V42.3993ZM209.12 60.7541L201.008 56.1243L195.136 52.7735V68.565L203.246 73.1931L209.12 76.5456V60.7541ZM176.955 96.3404L197.458 84.7373L207.707 78.9393L193.739 70.9673L177.657 80.1456L162.999 88.5104L176.955 96.3404V96.3404Z"
        fill="#FF2D20" />
    <mask id="mask0_981_2" style="mask-type:luminance" maskUnits="userSpaceOnUse" x="31" y="30"
        width="90" height="90">
        <path d="M121 30H31V120H121V30Z" fill="white" />
    </mask>
    <g mask="url(#mask0_981_2)">
        <path
            d="M85.357 74.2268L99.7972 50.5586C99.9753 50.282 100.072 49.9608 100.076 49.6319C100.067 49.178 99.8785 48.7461 99.5519 48.4307C99.2253 48.1153 98.7871 47.942 98.3332 47.9486V47.9402C98.3332 47.9402 90.8386 50.5841 83.3437 50.5841C75.8488 50.5841 68.3545 47.9402 68.3545 47.9402V47.9486C67.9005 47.942 67.4624 48.1153 67.1358 48.4307C66.8092 48.7461 66.6207 49.178 66.6115 49.6319C66.6242 49.9699 66.7265 50.2985 66.9079 50.5841L81.331 74.2268C81.5812 74.515 81.8905 74.7462 82.2378 74.9046C82.5851 75.063 82.9624 75.1449 83.3441 75.1449C83.7259 75.1449 84.1031 75.063 84.4504 74.9046C84.7978 74.7462 85.1067 74.515 85.357 74.2268Z"
            fill="#8C34B1" />
        <mask id="mask1_981_2" style="mask-type:luminance" maskUnits="userSpaceOnUse" x="31" y="30"
            width="90" height="90">
            <path d="M31 30H121V120H31V30Z" fill="white" />
        </mask>
        <g mask="url(#mask1_981_2)">
            <path
                d="M113.894 60.2691C113.894 57.5976 111.824 55.4328 109.257 55.4328C108.15 55.4518 107.085 55.8623 106.252 56.5916C105.419 57.3208 104.871 58.3216 104.705 59.4165C104.705 59.4165 103.393 68.2932 101.01 77.6202C99.8449 82.1769 95.4397 83.6502 94.6249 83.6502H75.2035C69.7846 83.6502 67.8283 78.0606 67.6672 77.6724C67.6105 77.5161 61.8031 60.9846 59.3731 51.7191C55.8394 38.2236 41.7802 40.6158 41.7802 40.6158C40.7314 40.8382 39.7921 41.417 39.122 42.2539C38.4518 43.0907 38.0922 44.1338 38.1043 45.2058C38.093 45.8237 38.2044 46.4378 38.4319 47.0125C38.6595 47.5871 38.9987 48.1109 39.43 48.5537C39.8612 48.9964 40.376 49.3492 40.9445 49.5917C41.513 49.8342 42.124 49.9616 42.742 49.9665C43.1011 49.9514 43.4573 49.8942 43.8031 49.7961C44.869 49.5783 49.1509 49.0002 50.4583 53.7846C53.0824 63.3861 58.7335 80.292 58.9987 81.0213C60.5239 85.1424 65.6587 93.1239 75.2035 93.1239H94.6246C98.8594 93.1239 107.518 89.5806 109.967 80.0076C112.293 70.9254 113.894 60.5484 113.894 60.2691Z"
                fill="#8C34B1" />
            <path
                d="M80.3486 105.493C80.3491 106.928 79.924 108.331 79.1271 109.525C78.3302 110.718 77.1972 111.648 75.8715 112.198C74.5458 112.747 73.0869 112.891 71.6794 112.611C70.2719 112.331 68.979 111.64 67.9643 110.626C66.9495 109.611 66.2585 108.318 65.9787 106.911C65.6988 105.503 65.8426 104.044 66.392 102.719C66.9414 101.393 67.8716 100.26 69.065 99.4629C70.2584 98.6659 71.6613 98.2407 73.0964 98.2412C75.0197 98.2413 76.8642 99.0053 78.2242 100.365C79.5843 101.725 80.3484 103.57 80.3486 105.493Z"
                fill="#8C34B1" />
            <path
                d="M103.736 106.104C103.737 107.539 103.312 108.942 102.515 110.135C101.718 111.329 100.585 112.259 99.2592 112.808C97.9335 113.358 96.4746 113.502 95.0671 113.222C93.6596 112.942 92.3667 112.251 91.352 111.236C90.3372 110.222 89.6462 108.929 89.3664 107.521C89.0865 106.114 89.2303 104.655 89.7797 103.329C90.3291 102.003 91.2593 100.87 92.4527 100.073C93.6461 99.2765 95.049 98.8513 96.4841 98.8518C98.4074 98.8519 100.252 99.6159 101.612 100.976C102.972 102.336 103.736 104.18 103.736 106.104Z"
                fill="#8C34B1" />
        </g>
    </g>
    <defs>
        <linearGradient id="paint0_linear_981_2" x1="491.052" y1="568.921" x2="764.424"
            y2="-67.3201" gradientUnits="userSpaceOnUse">
            <stop stop-color="white" />
            <stop offset="1" stop-color="#EEEEEE" />
        </linearGradient>
        <linearGradient id="paint1_linear_981_2" x1="440.168" y1="544.645" x2="432.117"
            y2="-88.3816" gradientUnits="userSpaceOnUse">
            <stop stop-color="white" />
            <stop offset="1" stop-color="#EEEEEE" />
        </linearGradient>
        <linearGradient id="paint2_linear_981_2" x1="621.283" y1="128.821" x2="453.386" y2="265.356"
            gradientUnits="userSpaceOnUse">
            <stop stop-color="white" />
            <stop offset="1" stop-color="#EEEEEE" />
        </linearGradient>
        <clipPath id="clip0_981_2">
            <rect width="662" height="441" fill="white" transform="translate(209 90)" />
        </clipPath>
    </defs>
</svg>
    