<svg width="1080" height="644" viewBox="0 0 1080 644" fill="none" xmlns="http://www.w3.org/2000/svg">
<rect width="1080" height="644" fill="white"/>
<path fill-rule="evenodd" clip-rule="evenodd" d="M332.647 50.0146C332.679 50.1326 332.696 50.2542 332.696 50.3764V69.3664C332.696 69.6101 332.631 69.8495 332.508 70.0604C332.385 70.2713 332.207 70.4463 331.994 70.5675L315.915 79.7441V97.9327C315.915 98.4277 315.65 98.8846 315.217 99.1339L281.653 118.287C281.576 118.33 281.493 118.358 281.409 118.387C281.377 118.397 281.348 118.416 281.315 118.425C281.08 118.486 280.833 118.486 280.599 118.425C280.56 118.415 280.525 118.394 280.489 118.38C280.412 118.352 280.332 118.328 280.258 118.287L246.702 99.1339C246.489 99.0125 246.312 98.8375 246.188 98.6266C246.065 98.4158 246 98.1764 246 97.9327V40.9627C246 40.8381 246.017 40.7169 246.049 40.5993C246.059 40.5594 246.084 40.5231 246.098 40.4833C246.124 40.4106 246.148 40.3362 246.187 40.2687C246.213 40.2237 246.251 40.1873 246.283 40.1458C246.323 40.0904 246.36 40.0333 246.407 39.9848C246.447 39.945 246.499 39.9156 246.545 39.881C246.595 39.8394 246.641 39.7944 246.698 39.7616H246.7L263.479 30.1852C263.692 30.064 263.932 30.0002 264.178 30.0002C264.423 30.0002 264.664 30.064 264.876 30.1852L281.655 39.7616H281.659C281.714 39.7962 281.762 39.8394 281.812 39.8793C281.858 39.9139 281.908 39.945 281.948 39.9831C281.997 40.0333 282.032 40.0904 282.074 40.1458C282.104 40.1873 282.144 40.2237 282.168 40.2687C282.209 40.3379 282.231 40.4106 282.259 40.4833C282.273 40.5231 282.298 40.5594 282.308 40.601C282.34 40.7189 282.357 40.8405 282.357 40.9627V76.5456L296.339 68.565V50.3746C296.339 50.2535 296.356 50.1306 296.388 50.0146C296.4 49.9731 296.423 49.9368 296.437 49.8969C296.465 49.8243 296.489 49.7498 296.527 49.6823C296.554 49.6373 296.592 49.601 296.622 49.5594C296.664 49.5041 296.699 49.4469 296.747 49.3985C296.788 49.3587 296.838 49.3293 296.884 49.2946C296.936 49.2531 296.981 49.2081 297.037 49.1752H297.039L313.82 39.5989C314.032 39.4775 314.273 39.4136 314.518 39.4136C314.763 39.4136 315.004 39.4775 315.217 39.5989L331.996 49.1752C332.055 49.2098 332.1 49.2531 332.153 49.2929C332.197 49.3275 332.247 49.3587 332.287 49.3968C332.336 49.4469 332.371 49.5041 332.413 49.5594C332.444 49.601 332.483 49.6373 332.507 49.6823C332.547 49.7498 332.57 49.8243 332.598 49.8969C332.614 49.9368 332.637 49.9731 332.647 50.0146V50.0146ZM329.899 68.565V52.7735L324.027 56.1243L315.915 60.7541V76.5456L329.901 68.565H329.899ZM313.12 97.1314V81.3294L305.141 85.8467L282.355 98.7375V114.688L313.12 97.1314ZM248.797 43.3598V97.1314L279.558 114.687V98.7393L263.488 89.7237L263.483 89.7202L263.476 89.7167C263.422 89.6856 263.376 89.6406 263.326 89.6025C263.282 89.5679 263.231 89.5402 263.193 89.5021L263.189 89.4969C263.144 89.4537 263.113 89.4 263.074 89.3516C263.039 89.3048 262.997 89.265 262.969 89.2166L262.968 89.2114C262.936 89.1594 262.917 89.0971 262.894 89.0383C262.872 88.9864 262.842 88.9379 262.828 88.8825V88.8808C262.81 88.815 262.807 88.7458 262.8 88.6783C262.793 88.6264 262.779 88.5744 262.779 88.5225V88.5191V51.3404L254.669 46.7089L248.797 43.3616V43.3598ZM264.179 32.9856L250.199 40.9627L264.176 48.9398L278.154 40.961L264.176 32.9856H264.179ZM271.45 82.7694L279.56 78.1414V43.3598L273.688 46.7106L265.576 51.3404V86.1219L271.45 82.7694ZM314.518 42.3993L300.54 50.3764L314.518 58.3535L328.495 50.3746L314.518 42.3993V42.3993ZM313.12 60.7541L305.008 56.1243L299.136 52.7735V68.565L307.246 73.1931L313.12 76.5456V60.7541ZM280.955 96.3404L301.458 84.7373L311.707 78.9393L297.739 70.9673L281.657 80.1456L266.999 88.5104L280.955 96.3404V96.3404Z" fill="#FF2D20"/>
<g clip-path="url(#clip0_239_2)">
<path d="M35 45.6646C35 37.0132 42.0068 30 50.6501 30H201.744V73.5759H35V45.6646Z" fill="#F3F4F7"/>
<path d="M79.1525 44.3771H65.5671C64.3774 44.4014 63.3696 44.6566 62.5441 45.1427C61.7428 45.6044 61.3421 46.5037 61.3421 47.8404C61.3421 48.8612 61.6821 49.5903 62.362 50.0277C63.0661 50.4652 63.8794 50.6839 64.8022 50.6839L72.0866 50.6475C72.3538 50.6718 72.6329 50.6839 72.9243 50.6839C73.2157 50.6839 73.5071 50.6961 73.7984 50.7204C74.6484 50.769 75.4861 50.9148 76.3116 51.1579C77.137 51.3766 77.8655 51.7898 78.4969 52.3974C79.0796 52.932 79.5167 53.5761 79.8081 54.3295C80.0994 55.0829 80.2815 55.8607 80.3544 56.6627C80.3786 56.9057 80.3908 57.1488 80.3908 57.3918C80.415 57.6105 80.4272 57.8414 80.4272 58.0845C80.3786 61.1225 79.5409 63.1882 77.9141 64.2819C76.2874 65.3514 74.0776 65.886 71.2853 65.886H56.6437V61.2196H70.4112C71.6254 61.2438 72.6694 61.0496 73.5435 60.6364C74.4418 60.2231 74.806 59.2875 74.6362 57.8293C74.5146 56.687 74.0898 55.9822 73.3614 55.7148C72.6329 55.4475 71.7711 55.3017 70.7754 55.2774L64.2923 55.2409C61.5971 55.2652 59.4604 54.7305 57.8821 53.6369C56.3281 52.5189 55.5632 50.5138 55.5875 47.6217C55.636 44.5837 56.4738 42.5179 58.1006 41.4242C59.7517 40.3062 61.9735 39.7472 64.7658 39.7472L79.1525 39.7108V44.3771ZM90.2569 44.3042H81.8434V39.7472H104.425V44.3042H95.9387V65.886H90.2569V44.3042ZM111.824 48.8612C111.654 49.5174 111.532 50.1857 111.46 50.8662C111.387 51.5224 111.35 52.1786 111.35 52.8348C111.35 53.5153 111.387 54.1959 111.46 54.8764C111.557 55.5326 111.678 56.1766 111.824 56.8085C112.091 57.9265 112.528 58.8987 113.135 59.725C113.766 60.5512 114.641 61.159 115.757 61.5477C116.17 61.6936 116.607 61.8029 117.069 61.8758C117.53 61.9488 117.991 61.9852 118.453 61.9852C118.914 61.9852 119.375 61.9488 119.837 61.8758C120.298 61.8029 120.735 61.6936 121.148 61.5477C122.265 61.159 123.139 60.5512 123.77 59.725C124.402 58.8987 124.839 57.9265 125.081 56.8085C125.227 56.1766 125.336 55.5326 125.409 54.8764C125.506 54.1959 125.555 53.5153 125.555 52.8348C125.555 52.1786 125.506 51.5224 125.409 50.8662C125.336 50.1857 125.227 49.5295 125.081 48.8976C124.839 47.7797 124.402 46.8075 123.77 45.9812C123.139 45.1305 122.265 44.5229 121.148 44.1584C120.735 44.0126 120.298 43.9032 119.837 43.8303C119.375 43.7574 118.914 43.7209 118.453 43.7209C117.991 43.7209 117.53 43.7574 117.069 43.8303C116.607 43.9032 116.17 44.0126 115.757 44.1584C114.641 44.5472 113.778 45.1548 113.171 45.9812C112.564 46.8075 112.115 47.7797 111.824 48.8976V48.8612ZM106.142 47.0019C106.773 45.0819 107.696 43.5265 108.91 42.3356C110.148 41.1204 111.763 40.2576 113.754 39.7472C114.483 39.5771 115.235 39.4434 116.012 39.3462C116.789 39.249 117.566 39.2004 118.343 39.2004C119.169 39.1761 120.006 39.2126 120.856 39.3098C121.706 39.407 122.52 39.565 123.297 39.7837C125.239 40.2698 126.83 41.1204 128.068 42.3356C129.306 43.5508 130.217 45.1184 130.8 47.0384C131.042 47.9133 131.224 48.8369 131.346 49.809C131.492 50.7812 131.564 51.7533 131.564 52.7255C131.564 53.7705 131.504 54.7913 131.382 55.7877C131.261 56.7842 131.067 57.7321 130.8 58.6313C130.217 60.5999 129.294 62.1917 128.032 63.407C126.769 64.5978 125.142 65.4243 123.151 65.886C122.374 66.0805 121.573 66.2141 120.747 66.287C119.922 66.3841 119.084 66.4328 118.234 66.4328C117.481 66.4328 116.729 66.3841 115.976 66.287C115.223 66.1899 114.483 66.056 113.754 65.886C111.787 65.4243 110.173 64.5978 108.91 63.407C107.648 62.1917 106.725 60.5999 106.142 58.6313C105.899 57.7806 105.705 56.8571 105.559 55.8607C105.438 54.8642 105.377 53.8556 105.377 52.8348C105.377 51.8141 105.438 50.8055 105.559 49.809C105.681 48.7883 105.875 47.8647 106.142 47.0384V47.0019ZM135.259 39.7108H148.808C149.075 39.7351 149.33 39.7472 149.573 39.7472C149.84 39.7472 150.107 39.7594 150.374 39.7837C151.37 39.8323 152.341 39.9903 153.288 40.2576C154.259 40.525 155.109 41.0232 155.837 41.7523C156.493 42.3842 156.979 43.1255 157.294 43.9761C157.634 44.8267 157.841 45.7017 157.913 46.6009C157.913 46.771 157.913 46.9412 157.913 47.1113C157.938 47.2814 157.95 47.4516 157.95 47.6217C157.974 49.4445 157.549 51.0242 156.675 52.3609C155.825 53.6733 154.49 54.5482 152.669 54.9857L159.188 65.886H152.997L147.242 55.6055H140.759V65.886H135.259V39.7108ZM147.497 44.3771H140.759V50.9756H147.497C147.545 50.9999 147.594 51.012 147.643 51.012C147.691 51.012 147.74 51.012 147.788 51.012C148.954 51.012 150.01 50.8419 150.957 50.5017C151.928 50.1371 152.402 49.2014 152.377 47.6946C152.377 46.1391 151.867 45.2034 150.848 44.8875C149.852 44.5715 148.735 44.4136 147.497 44.4136V44.3771ZM173.356 44.2677C171.341 44.292 169.836 44.8389 168.84 45.9082C167.844 46.9533 167.286 48.448 167.165 50.3923L182.389 50.3558V54.9128H167.128C167.128 55.8364 167.225 56.7234 167.42 57.5741C167.638 58.4247 168.063 59.2023 168.694 59.9072C169.253 60.5634 169.909 60.9767 170.661 61.1467C171.438 61.2926 172.227 61.3655 173.029 61.3655C173.077 61.3655 173.126 61.3655 173.174 61.3655C173.247 61.3655 173.308 61.3655 173.356 61.3655L182.389 61.329V65.886H173.101C171.62 65.886 170.188 65.7524 168.804 65.485C167.444 65.2175 166.157 64.5978 164.943 63.6257C163.486 62.4349 162.466 60.9887 161.883 59.2875C161.301 57.5619 160.985 55.7999 160.937 54.0014C160.912 53.6126 160.9 53.2358 160.9 52.8713C160.924 52.5067 160.949 52.1422 160.973 51.7776C161.24 47.646 162.357 44.608 164.324 42.6637C166.315 40.7194 169.289 39.7472 173.247 39.7472L182.389 39.7108V44.2677H173.356Z" fill="#EB4433"/>
<path d="M104.145 73.5759H201.744V101.487C201.744 110.139 194.738 117.152 186.094 117.152H104.145V73.5759Z" fill="#4F5B93"/>
<path d="M128.673 87.9532H122.299V95.6818H129C130.336 95.6818 131.489 95.4266 132.461 94.9162C133.432 94.3816 133.917 93.3609 133.917 91.854C133.966 90.177 133.444 89.1198 132.351 88.6823C131.283 88.2206 130.057 87.9897 128.673 87.9897V87.9532ZM116.799 83.2869H128.745C128.77 83.3111 128.794 83.3233 128.818 83.3233C128.867 83.3233 128.903 83.3233 128.928 83.3233C129.389 83.3233 129.85 83.3233 130.312 83.3233C130.773 83.3233 131.234 83.3475 131.696 83.3962C132.521 83.4449 133.335 83.5663 134.136 83.7608C134.961 83.9308 135.726 84.2225 136.43 84.6357C137.718 85.3891 138.628 86.4221 139.162 87.7345C139.721 89.0469 140.012 90.4199 140.036 91.854C140.06 93.1664 139.83 94.4301 139.344 95.6454C138.883 96.8606 138.106 97.8691 137.013 98.6712C136.09 99.3274 135.083 99.7648 133.99 99.9836C132.922 100.178 131.829 100.299 130.712 100.348C130.421 100.348 130.13 100.348 129.838 100.348C129.547 100.348 129.255 100.348 128.964 100.348L122.299 100.312V109.462H116.799V83.2869ZM149.331 83.2869V93.8955H159.42V83.2869H164.919V109.462H159.42V98.5254H149.331V109.462H143.831V83.2869H149.331ZM182.167 87.9532H175.794V95.6818H182.495C183.831 95.6818 184.984 95.4266 185.955 94.9162C186.926 94.3816 187.412 93.3609 187.412 91.854C187.461 90.177 186.939 89.1198 185.846 88.6823C184.777 88.2206 183.551 87.9897 182.167 87.9897V87.9532ZM170.294 83.2869H182.24C182.264 83.3111 182.289 83.3233 182.313 83.3233C182.362 83.3233 182.398 83.3233 182.422 83.3233C182.884 83.3233 183.345 83.3233 183.806 83.3233C184.268 83.3233 184.729 83.3475 185.19 83.3962C186.016 83.4449 186.829 83.5663 187.631 83.7608C188.456 83.9308 189.221 84.2225 189.925 84.6357C191.212 85.3891 192.123 86.4221 192.657 87.7345C193.215 89.0469 193.507 90.4199 193.531 91.854C193.555 93.1664 193.325 94.4301 192.839 95.6454C192.378 96.8606 191.601 97.8691 190.508 98.6712C189.585 99.3274 188.578 99.7648 187.485 99.9836C186.416 100.178 185.324 100.299 184.207 100.348C183.916 100.348 183.624 100.348 183.333 100.348C183.041 100.348 182.75 100.348 182.459 100.348L175.794 100.312V109.462H170.294V83.2869Z" fill="white"/>
</g>
<g clip-path="url(#clip1_239_2)">
<path d="M747.171 252.944C743.589 214.225 679.124 214.923 679.124 214.923C679.124 214.923 625.455 272.264 612.852 271.661C600.248 271.058 649.159 213.678 649.159 213.678C625.661 207.216 559.655 225.896 559.655 225.896C559.655 225.896 550.364 302.063 538.296 298.378C526.227 294.694 549.965 231.352 549.965 231.352C525.631 234.266 499.348 257.479 499.348 257.479C464.717 296.697 516.904 339.112 516.904 339.112C516.904 339.112 513.115 365.439 491.691 392.666C491.691 392.666 487.075 397.578 481.718 406.363L488.021 407.46C488.809 405.894 489.664 404.363 490.585 402.87C490.59 402.858 490.592 402.852 490.604 402.842C490.62 402.82 490.628 402.801 490.644 402.779C491.243 401.882 492.111 400.601 493.177 399.051L493.18 399.045L493.183 399.04C495.764 395.602 497.555 393.048 498.723 391.184L498.73 391.165C506.564 380.337 517.561 366.371 523.67 364.105C523.67 364.105 523.142 363.003 522.821 360.981C523.094 361.977 523.37 363.018 523.67 364.105C530.438 389.092 583.737 402.326 614.878 401.389C646.019 400.452 634.389 389.699 620.592 373.132C606.794 356.564 572.242 354.292 563.161 347.157C554.081 340.021 569.663 337.177 589.446 342.201C609.219 347.227 615.761 368.999 647.602 377.71C679.444 386.422 714.714 329.847 714.714 329.847C691.149 332.896 653.202 313.594 653 305.625C652.801 297.651 712.034 308.743 721.683 308.04C731.348 307.337 750.754 291.665 747.171 252.944Z" fill="url(#paint0_linear_239_2)"/>
<path d="M334.791 188.114C351.383 156.671 405.532 179.836 405.532 179.836C405.532 179.836 430.722 247.054 441.567 250.959C452.412 254.864 431.251 189.279 431.251 189.279C453.343 192.05 502.49 230.941 502.49 230.941C502.49 230.941 483.638 298.516 495.112 299.631C506.585 300.746 508.754 238.942 508.754 238.942C528.265 249.924 542.307 278.732 542.307 278.732C557.784 323.979 498.887 341.521 498.887 341.521C498.887 341.521 492.858 365.081 501.394 395.576C501.394 395.576 503.568 401.342 505.009 410.636L499.306 409.355C499.19 407.756 499.005 406.164 498.752 404.582C498.752 404.569 498.752 404.562 498.746 404.551C498.739 404.526 498.739 404.507 498.733 404.483C498.542 403.516 498.259 402.13 497.901 400.449V400.436C496.929 396.63 496.312 393.845 495.98 391.862V391.843C493.166 379.956 488.78 364.311 484.42 360.258C484.42 360.258 485.251 359.513 486.231 357.918C485.652 358.662 485.054 359.445 484.42 360.258C469.953 378.989 420.344 371.499 394.396 359.802C368.449 348.106 382.029 343.098 399.477 333.939C416.925 324.78 446.876 334.962 457.038 332.116C467.2 329.27 455.049 321.41 436.596 318.725C418.151 316.046 405.002 332.14 375.083 328.346C345.162 324.552 335.229 264.424 335.229 264.424C354.044 275.252 392.826 272.24 395.789 265.581C398.751 258.917 344.886 247.541 336.99 243.568C329.082 239.589 318.199 219.559 334.791 188.114Z" fill="url(#paint1_linear_239_2)"/>
<path d="M435.503 251.561L424.595 202.615H393.051" stroke="#EB4432" stroke-width="30.865" stroke-linecap="round" stroke-linejoin="round"/>
<path fill-rule="evenodd" clip-rule="evenodd" d="M464.57 386.254L435.502 251.561H644.32C654.829 251.561 662.648 261.191 660.454 271.412L635.676 386.254C634.043 393.817 627.329 399.215 619.542 399.215H480.688C472.917 399.215 466.203 393.817 464.57 386.254Z" fill="#EB4432" stroke="#EB4432" stroke-width="30.865" stroke-linecap="round" stroke-linejoin="round"/>
<path d="M612.616 441.839C608.222 441.839 604.656 445.403 604.699 449.793C604.699 454.183 608.265 457.746 612.658 457.746C617.052 457.746 620.618 454.183 620.618 449.793C620.597 445.403 617.031 441.839 612.616 441.839ZM485.271 441.839C480.877 441.839 477.311 445.403 477.353 449.793C477.332 454.183 480.898 457.746 485.292 457.746C489.686 457.746 493.252 454.183 493.252 449.793C493.252 445.403 489.686 441.839 485.271 441.839Z" stroke="#EB4432" stroke-width="39.978" stroke-linecap="round" stroke-linejoin="round"/>
<path fill-rule="evenodd" clip-rule="evenodd" d="M712.257 365.768C696.478 365.768 683.684 352.985 683.684 337.217C683.684 321.449 696.478 308.665 712.257 308.665C728.037 308.665 740.831 321.449 740.831 337.217C740.831 352.985 728.037 365.768 712.257 365.768Z" fill="#EB4432"/>
<path d="M721.238 333.138L709.505 344.558L702.461 337.707" stroke="white" stroke-width="6.539" stroke-linecap="round" stroke-linejoin="round"/>
<path fill-rule="evenodd" clip-rule="evenodd" d="M731.442 272.771C715.437 272.771 702.461 259.622 702.461 243.403C702.461 227.185 715.437 214.036 731.442 214.036C747.448 214.036 760.424 227.185 760.424 243.403C760.424 259.622 747.448 272.771 731.442 272.771Z" fill="#EB4432"/>
<path d="M741.647 238.508L729.404 251.561L722.054 243.73" stroke="white" stroke-width="6.539" stroke-linecap="round" stroke-linejoin="round"/>
<path fill-rule="evenodd" clip-rule="evenodd" d="M355.446 299.533C339.57 299.533 326.697 286.67 326.697 270.806C326.697 254.941 339.57 242.078 355.446 242.078C371.323 242.078 384.195 254.941 384.195 270.806C384.195 286.67 371.323 299.533 355.446 299.533Z" fill="#EB4432"/>
<path d="M365.03 266.453L353.053 278.64L345.863 271.329" stroke="white" stroke-width="6.539" stroke-linecap="round" stroke-linejoin="round"/>
<path d="M603.678 290.718H492.649C488.14 290.718 484.485 294.37 484.485 298.875V302.138C484.485 306.643 488.14 310.296 492.649 310.296H603.678C608.187 310.296 611.842 306.643 611.842 302.138V298.875C611.842 294.37 608.187 290.718 603.678 290.718Z" fill="white"/>
<path d="M603.678 337.217H492.649C488.14 337.217 484.485 340.869 484.485 345.374V348.637C484.485 353.142 488.14 356.795 492.649 356.795H603.678C608.187 356.795 611.842 353.142 611.842 348.637V345.374C611.842 340.869 608.187 337.217 603.678 337.217Z" fill="white"/>
<path d="M573.007 198.995C587.45 181.138 580.575 151.639 580.575 151.639C580.575 151.639 550.287 151.112 535.856 168.983C521.413 186.841 528.276 216.327 528.276 216.327C528.276 216.327 558.565 216.853 573.007 198.995Z" fill="url(#paint2_linear_239_2)"/>
<path d="M751.916 288.271H751.792C751.054 298.342 743.28 298.497 743.28 298.497C743.28 298.497 751.853 298.658 751.853 310.296C751.853 298.658 760.424 298.497 760.424 298.497C760.424 298.497 752.654 298.342 751.916 288.271ZM504.551 191.194H504.426C503.689 201.266 495.915 201.421 495.915 201.421C495.915 201.421 504.487 201.582 504.487 213.22C504.487 201.582 513.06 201.421 513.06 201.421C513.06 201.421 505.289 201.266 504.551 191.194ZM325.763 213.22H325.638C324.9 223.292 317.127 223.447 317.127 223.447C317.127 223.447 325.699 223.608 325.699 235.246C325.699 223.608 334.271 223.447 334.271 223.447C334.271 223.447 326.501 223.292 325.763 213.22ZM679.019 385.871C674.11 387.313 667.568 390.217 664.044 395.508C660.522 400.8 665.176 402.071 671.171 400.782C677.166 399.494 682.99 395.779 685.175 390.858C687.36 385.936 683.047 384.687 679.019 385.871Z" fill="#E1E4E5"/>
<path fill-rule="evenodd" clip-rule="evenodd" d="M398.407 391.321H400.516C401.026 391.321 401.437 391.737 401.437 392.242V394.349C401.437 394.859 401.022 395.27 400.516 395.27H398.407C398.163 395.269 397.929 395.171 397.757 394.999C397.584 394.827 397.487 394.593 397.486 394.349V392.242C397.486 392.121 397.51 392.001 397.556 391.889C397.602 391.777 397.67 391.676 397.755 391.59C397.841 391.505 397.943 391.437 398.054 391.391C398.166 391.345 398.286 391.321 398.407 391.321ZM405.72 391.321H407.829C408.335 391.321 408.75 391.737 408.75 392.242V394.349C408.75 394.859 408.335 395.27 407.829 395.27H405.72C405.476 395.269 405.242 395.171 405.07 394.999C404.898 394.827 404.8 394.593 404.799 394.349V392.242C404.799 391.737 405.215 391.321 405.72 391.321ZM413.038 391.321H415.147C415.653 391.321 416.068 391.737 416.068 392.242V394.349C416.068 394.859 415.653 395.27 415.147 395.27H413.038C412.794 395.269 412.56 395.171 412.388 394.999C412.215 394.827 412.118 394.593 412.117 394.349V392.242C412.117 392.121 412.141 392.001 412.187 391.889C412.233 391.777 412.301 391.676 412.386 391.59C412.472 391.505 412.573 391.437 412.685 391.391C412.797 391.345 412.917 391.321 413.038 391.321ZM420.352 391.321H422.461C422.966 391.321 423.382 391.737 423.382 392.242V394.349C423.382 394.859 422.966 395.27 422.461 395.27H420.352C420.107 395.27 419.873 395.173 419.699 395C419.526 394.828 419.428 394.594 419.427 394.349V392.242C419.429 391.998 419.528 391.764 419.701 391.592C419.874 391.42 420.107 391.323 420.352 391.321ZM427.665 391.321H429.775C430.285 391.321 430.699 391.737 430.699 392.242V394.349C430.699 394.859 430.285 395.27 429.775 395.27H427.665C427.421 395.269 427.188 395.171 427.015 394.999C426.843 394.827 426.745 394.593 426.744 394.349V392.242C426.744 391.737 427.159 391.321 427.665 391.321ZM405.988 399.29H408.098C408.603 399.29 409.018 399.705 409.018 400.21V402.323C409.018 402.828 408.603 403.242 408.098 403.242H405.988C405.744 403.242 405.51 403.145 405.337 402.973C405.165 402.801 405.068 402.567 405.067 402.323V400.215C405.067 400.094 405.09 399.973 405.136 399.861C405.182 399.749 405.25 399.647 405.335 399.561C405.421 399.475 405.523 399.407 405.635 399.36C405.747 399.314 405.867 399.29 405.988 399.29ZM413.302 399.29H415.411C415.917 399.29 416.332 399.705 416.332 400.21V402.323C416.332 402.828 415.917 403.242 415.411 403.242H413.302C413.058 403.241 412.824 403.144 412.652 402.972C412.479 402.8 412.382 402.566 412.381 402.323V400.215C412.38 400.094 412.404 399.973 412.45 399.861C412.495 399.749 412.563 399.647 412.649 399.561C412.734 399.475 412.836 399.407 412.948 399.36C413.06 399.314 413.181 399.29 413.302 399.29ZM420.616 399.29H422.724C423.235 399.29 423.65 399.705 423.65 400.21V402.323C423.65 402.828 423.235 403.242 422.724 403.242H420.616C420.372 403.241 420.138 403.144 419.966 402.972C419.793 402.8 419.696 402.566 419.695 402.323V400.215C419.695 399.705 420.11 399.29 420.616 399.29ZM413.038 382.761H415.147C415.653 382.761 416.068 383.175 416.068 383.681V385.789C416.068 386.298 415.653 386.708 415.147 386.708H413.038C412.794 386.708 412.56 386.611 412.388 386.438C412.215 386.266 412.118 386.033 412.117 385.789V383.681C412.117 383.56 412.14 383.44 412.187 383.328C412.233 383.217 412.301 383.115 412.386 383.03C412.472 382.944 412.573 382.876 412.685 382.83C412.797 382.784 412.917 382.76 413.038 382.761ZM420.352 382.761H422.461C422.966 382.761 423.382 383.175 423.382 383.681V385.789C423.382 386.298 422.966 386.708 422.461 386.708H420.352C420.107 386.708 419.873 386.612 419.699 386.439C419.526 386.267 419.428 386.033 419.427 385.789V383.681C419.429 383.437 419.528 383.204 419.701 383.032C419.874 382.86 420.107 382.762 420.352 382.761Z" fill="#E1E4E5"/>
</g>
<path d="M507.12 552.408H490.32V542.52C490.32 541.112 489.52 540.408 487.92 540.408H484.56C482.96 540.408 482.16 541.112 482.16 542.52V577.848C482.16 579.256 482.96 579.96 484.56 579.96H487.92C489.52 579.96 490.32 579.256 490.32 577.848V568.344H507.12V579.096C507.12 587.032 502.416 591 493.008 591H479.472C470.064 591 465.36 587.032 465.36 579.096V541.272C465.36 533.336 470.064 529.368 479.472 529.368H493.008C502.416 529.368 507.12 533.336 507.12 541.272V552.408ZM535.643 543.096H551.675V591H535.355V585.816C534.139 589.272 531.323 591 526.907 591H525.179C516.667 591 512.411 587.032 512.411 579.096V555C512.411 547.064 516.667 543.096 525.179 543.096H526.907C531.835 543.096 534.747 545.144 535.643 549.24V543.096ZM531.131 579H532.763C534.491 579 535.355 578.04 535.355 576.12V557.976C535.355 556.056 534.491 555.096 532.763 555.096H531.131C529.531 555.096 528.731 555.8 528.731 557.208V576.888C528.731 578.296 529.531 579 531.131 579ZM585.709 542.616H587.149V556.824H581.677C577.645 556.824 575.629 559 575.629 563.352V591H559.309V543.096H575.341V550.488C575.853 548.056 577.005 546.136 578.797 544.728C580.589 543.32 582.893 542.616 585.709 542.616ZM615.753 555.096H609.705V576.888C609.705 578.296 610.505 579 612.105 579H615.657V591H607.497C598.089 591 593.385 587.032 593.385 579.096V555.096H588.105V543.096H593.385V533.688H609.705V543.096H615.753V555.096Z" fill="#232323"/>
<defs>
<linearGradient id="paint0_linear_239_2" x1="491.052" y1="568.921" x2="764.424" y2="-67.3201" gradientUnits="userSpaceOnUse">
<stop stop-color="white"/>
<stop offset="1" stop-color="#EEEEEE"/>
</linearGradient>
<linearGradient id="paint1_linear_239_2" x1="440.168" y1="544.645" x2="432.117" y2="-88.3816" gradientUnits="userSpaceOnUse">
<stop stop-color="white"/>
<stop offset="1" stop-color="#EEEEEE"/>
</linearGradient>
<linearGradient id="paint2_linear_239_2" x1="621.283" y1="128.821" x2="453.386" y2="265.356" gradientUnits="userSpaceOnUse">
<stop stop-color="white"/>
<stop offset="1" stop-color="#EEEEEE"/>
</linearGradient>
<clipPath id="clip0_239_2">
<rect width="166.744" height="90" fill="white" transform="translate(35 30)"/>
</clipPath>
<clipPath id="clip1_239_2">
<rect width="662" height="441" fill="white" transform="translate(209 90)"/>
</clipPath>
</defs>
</svg>
